<?xml version="1.0" encoding="UTF-8"?>
<svg width="300px" height="300px" viewBox="0 0 300 300" version="1.1" xmlns="http://www.w3.org/2000/svg" xmlns:xlink="http://www.w3.org/1999/xlink">
    <title>Onboarding2 Image</title>
    <defs>
        <path d="M162.139016,25.7529918 L162.792,23.256 C163.577408,23.4782136 164.048293,24.2797774 163.86,25.074 C163.775812,25.3963722 163.58029,25.6764832 163.310864,25.8665255 L165.192022,25.8 C165.196277,26.6111455 164.562086,27.2823313 163.752,27.324 C163.720847,27.3250752 163.689768,27.3251063 163.658812,27.3241115 C165.092696,29.1372899 165.948,31.4307615 165.948,33.924 C165.948,39.1424524 162.964547,43.6640819 158.61027,45.8762586 L158.609949,49.231 L158.73,49.242 L159.256556,49.3461514 C159.754782,49.3704685 161.258414,49.4492673 162.796803,49.5835605 C165.936,49.584 168.258,49.836 170.07,52.494 C171.882,55.152 177.486,69.138 178.11,70.95 C178.734,72.762 179.142,74.244 176.532,78.486 L176.5174,78.4815194 C176.444467,78.6546501 176.369333,78.8340193 176.292,79.02 C175.254,81.594 174.03,83.268 172.092,87.294 C171.324,88.884 170.616,90.75 169.98,91.986 C169.678126,92.5694051 169.392805,93.0996242 169.118842,93.5802635 C168.788305,102.838213 167.004,112.632 167.004,112.632 C167.124,114.03 168.726,116.79 169.326,122.964 C169.433105,124.076249 169.47722,125.473284 169.475072,127.042313 C184.103704,127.978186 198.051596,130.217881 210.962667,133.555158 C211.376393,129.041342 211.755918,126.564394 213.372,124.98 C215.52,122.838 219.12,122.838 219.12,122.838 L219.14337,122.881472 C219.298791,122.808093 219.458984,122.741882 219.624,122.682 C220.098644,122.511687 221.057902,122.229639 222.068894,121.941055 C222.037792,121.945925 222.024,121.95 222.024,121.95 C222.912506,120.768576 223.87229,119.642483 224.898,118.578 C225.3048,118.2648 225.61224,118.19784 225.793104,118.194384 C225.889565,118.192541 225.950022,118.208761 225.970346,118.215323 L225.755742,116.672682 C223.966197,116.869243 221.583827,116.681542 220.929341,116.184536 L220.854,116.118 C220.093259,115.313087 219.489093,113.649015 219.589944,109.145486 C219.26153,109.076723 218.083916,108.811987 217.878,108.534 C217.748696,108.359439 218.32475,107.347156 218.883647,106.450496 C218.286407,105.952954 217.912226,105.198489 217.926723,104.360368 C217.949949,103.017496 218.962955,101.923763 220.258608,101.762834 C220.356354,101.284308 220.465419,100.847689 220.589227,100.447324 C219.917552,100.353068 219.2868,100.032643 218.808,99.522 C218.408411,99.0382756 218.195528,98.4272996 218.208,97.8 L218.183903,97.794 C218.174858,96.7392673 218.813064,95.786721 219.792,95.394 C218.91,94.326 218.064,93.114 218.346,91.656 C218.697251,90.3493854 219.764813,89.3587443 221.094,89.106 C222.405461,88.8841949 223.75243,89.0188919 224.994,89.496 C226.254,89.904 227.466,90.456 228.756,90.756 C230.197671,91.0213658 231.65842,91.1698486 233.124,91.2 C234.595124,91.228296 236.047241,91.5378637 237.402,92.112 C238.321749,92.5358553 239.100565,93.214717 239.646,94.068 C239.881367,94.4620052 240.057265,94.8886062 240.168,95.334 C240.191787,95.4172533 240.21852,95.6507988 240.258423,95.8739973 C240.51999,95.6682739 240.848497,95.5519524 241.193177,95.5538144 C241.729848,95.5567581 242.224194,95.8457684 242.49,96.312 L241.41408,96.9237469 C244.378613,99.1500333 243.898811,104.390564 241.218,110.118 C239.8695,112.995187 236.781064,115.692187 234.527404,116.261602 L234.488804,116.269071 L234.569804,117.369071 L234.54,116.922 C234.589241,116.900897 234.641508,116.892778 234.696114,116.896203 C235.210769,116.928482 235.933285,117.98617 236.290281,118.863189 C237.057671,118.767283 237.828944,118.694634 238.602,118.644 L238.841469,118.652448 C238.846532,118.652675 238.851591,118.652906 238.856645,118.65314 L238.854,118.644 C239.379957,118.526553 239.918083,118.466472 240.460507,118.47207 L240.664102,118.477264 C243.245134,118.582468 245.900936,120.193021 247.788,124.2 C250.044,128.928 256.572,142.842 256.722,146.178 C256.7689,147.218828 255.527792,148.921286 253.77966,150.788413 C278.474928,165.344778 293.7,185.277846 293.7,207.264 C293.7,251.84332 231.106722,287.982 153.894,287.982 C76.6812783,287.982 14.088,251.84332 14.088,207.264 C14.088,187.977302 25.8039242,170.270485 45.3508916,156.386513 C45.3657974,155.226401 45.3771344,154.097662 45.3876248,153.020172 C42.740476,151.710621 39.233961,147.86969 37.524,145.842 C37.2812746,145.554472 37.0300799,145.241269 36.7741854,144.909812 L36.744,144.912 C33.348,141.06 28.602,133.476 28.644,132.384 C28.8,129 33.6,120.888 37.308,114.384 C41.4902633,106.96347 43.0190805,103.915772 48.8732843,104.393729 L48.948,104.37 C49.8964037,104.097098 50.9981249,103.876518 52.0323344,103.690178 C52.4400254,100.82213 53.9880147,100.179326 54.2455727,100.09146 L54.2117232,98.4312282 L54.0361701,98.3705598 C53.4882573,98.1536508 53.0295044,97.7538479 52.74,97.236 C52.5965059,96.9596411 52.3907685,96.2711156 52.1720521,95.4379041 C51.9092576,95.4115205 51.6119437,95.3494896 51.276,95.244 C49.83,94.794 48.12,92.16 49.026,90.234 C49.4065943,89.4249221 49.9513046,89.0954866 50.4968936,89.0299711 C49.6856318,86.3200578 49.4616764,83.5123072 50.286,82.668 C50.5365773,82.4019676 50.8300378,82.1859269 51.1508391,82.0266354 L49.29,81.03 C49.4689227,80.6555029 49.7928455,80.3701794 50.1869291,80.2399506 C50.5810127,80.1097218 51.0111637,80.1458543 51.378,80.34 C51.6055142,80.4678937 51.7912437,80.6422465 51.9295621,80.8447597 C52.1751488,79.4850609 53.2637827,78.3481676 54.522,77.73 C56.5246228,76.8632082 58.7211057,76.5423271 60.888,76.8 C62.772,76.956 64.716,77.172 66.51,76.584 C67.2,76.356 67.854,75.984 68.556,75.816 C69.2532719,75.5749808 70.0179353,75.6225023 70.68,75.948 C72.036,76.734 72.12,79.152 70.782,79.974 C70.692,80.028 70.584,80.088 70.554,80.19 C70.5335615,80.3090094 70.5593138,80.4313326 70.626,80.532 C70.8511305,81.0284095 70.8388674,81.5992042 70.5946191,82.0845356 L70.6773117,82.260105 L70.7862359,82.5102228 C71.7358345,84.8040662 71.4682957,87.3834552 70.1505426,89.4105357 C70.2780352,92.6501237 69.9374053,94.6173999 69.3,96.9 C68.766,98.88 67.566,100.32 65.766,100.602 C64.6452155,100.667745 63.5206047,100.611414 62.412,100.434 L62.4117232,100.841228 L62.683391,100.977441 C63.5840573,101.452507 64.3720232,102.117343 64.9923431,102.926926 C65.2825403,102.986166 65.5620829,103.05641 65.8315498,103.136835 C71.8454871,102.700951 73.3861671,107.391992 76.038,113.862 C77.478,117.396 79.014,120.996 80.274,124.5 C82.986,123.654 90.546,121.962 94.932,120.252 C94.9342231,120.261694 94.9364544,120.271386 94.9386937,120.281076 L94.92,120.294 C97.656,118.698 97.398,117.588 98.52,116.568 C99.816,115.368 101.172,112.524 102.228,114.09 C102.936,115.146 101.466,115.854 101.556,117.192 C101.646,118.53 105.69,115.392 107.388,114.192 C108.51,113.406 111.114,115.872 110.07,118.542 C109.146,120.942 107.67,122.412 105.006,123.534 C102.373361,124.661469 100.921865,125.259277 97.824881,126.621304 C94.164,128.64 79.074,135.546 76.986,135.108 C75.4809926,134.797533 73.9270066,132.184478 72.492711,128.674159 C72.6763242,133.978544 72.8620333,139.062007 72.9498219,141.444285 C92.8250187,133.280771 116.556751,128.044075 142.259397,126.821526 C141.848441,120.728927 141.457021,115.011848 141.3,112.944 C140.904,107.658 142.278,95.334 143.292,85.524 C143.468359,83.8191963 144.009434,80.4921041 144.536177,77.4896502 C142.754234,77.2708739 142.038,76.62 142.038,76.62 C142.038,76.62 144.042,71.454 144.234,68.634 C144.254519,68.2138214 144.264517,67.7934663 144.264026,67.3733262 C143.167694,68.6691752 142.229835,69.7740991 141.852,70.212 C140.682,71.568 140.238,71.898 138.996,72.372 C138.0543,72.7313928 135.829454,73.2598021 134.808627,73.494317 C131.973031,74.3051378 128.593018,75.2136786 125.364,75.9 C123.647596,76.20389 121.914466,76.4042519 120.174,76.5 C115.266,76.92 112.866,75.348 112.266,74.364 C110.556,71.622 111.75,70.404 114.276,71.07 C115.582441,71.3430286 116.933399,71.3204784 118.23,71.004 C117.686422,70.6897436 117.182777,70.3110027 116.73,69.876 C116.292028,69.4869487 116.249197,68.8177089 116.634,68.376 C116.808,68.19 117.21,68.646 118.158,68.976 C119.37,69.39 120.258,69.516 121.404,70.266 C121.837006,70.5531637 122.358205,70.6765496 122.874,70.614 C124.981644,70.3364502 129.358678,68.8176316 132.824221,67.4372855 C132.822,67.434 136.38,65.814 136.458,65.718 C136.536,65.622 141.432,53.61 144.642,50.454 C145.983049,49.1428856 147.097097,48.5904281 150.022657,48.8025881 C150.033739,48.794914 150.043882,48.7874367 150.054,48.78 L151.675696,48.7047723 C151.821703,48.5213511 151.914,48.414 151.914,48.414 L151.913949,47.322 L143.364,47.322 L143.364,33.924 C143.364,28.0322263 148.140226,23.256 154.032,23.256 L155.28,23.256 C157.891875,23.256 160.28452,24.194637 162.139016,25.7529918 Z M243.312,143.16 C243.341399,143.84088 243.372296,144.542735 243.404115,145.254913 C244.203446,145.641233 244.995135,146.031293 245.779118,146.426323 L247.2,144.66 L243.917081,138.194903 C243.707538,139.725596 243.491191,141.350911 243.312,143.16 Z M38.028,132.654 C38.028,132.654 42.3264906,140.436157 43.1855354,141.877706 C43.5321719,142.366908 43.8027754,142.732848 43.95,142.902 C44.4008163,143.419959 44.7749632,143.571609 45.1641388,143.534898 L45.222,122.262 C45.222,122.262 45.2265373,121.993962 45.2389587,121.526228 Z M151.2,113.91 C151.2,113.91 151.71,117.456 151.968,120.156 C152.079253,121.300782 151.860774,123.683903 151.481745,126.557139 L151.582052,126.556814 L153.894,126.546 C155.696416,126.546 157.490865,126.565693 159.276737,126.604726 C158.377966,121.234243 157.602322,116.380826 157.302,113.946 C156.504,107.616 154.902,94.47 154.902,94.47 Z M219.204475,105.943552 C219.532689,105.43448 219.797431,105.044897 219.825532,105.003622 C219.834252,104.887236 219.844642,104.772909 219.855308,104.660087 L218.522,104.467 L218.520437,104.375861 C218.511459,104.996845 218.776876,105.557913 219.204475,105.943552 Z M218.589862,103.871464 L219.915842,104.063811 C219.981855,103.457931 220.057415,102.898631 220.144821,102.381953 C219.390553,102.549245 218.788176,103.12679 218.589862,103.871464 Z M207.132,35.046 L244.038,56.34 C244.587769,56.6833649 245.057046,57.1385069 245.416367,57.6740849 C245.946805,58.4347997 246.265661,59.3371754 246.318,60.288 L246.318,78.984 C246.230668,80.5881705 245.383793,82.0546003 244.038,82.932 C243.714176,83.0960151 243.377079,83.2229749 243.032706,83.3128794 C242.97722,83.3270509 242.922002,83.3407642 242.866609,83.3535364 C242.841074,83.3589977 242.81532,83.3645854 242.789534,83.3699691 C241.838209,83.5744406 240.839038,83.5020626 239.914849,83.1455612 C239.889396,83.1369938 239.863772,83.1277906 239.838,83.118 C239.86336,83.1281837 239.888779,83.1381535 239.914849,83.1455612 C239.987935,83.1703482 240.05972,83.1902843 240.130036,83.2055304 C239.907737,83.1308923 239.690024,83.0393889 239.478,82.932 L236.104,80.9827619 L235.338,82.326 C235.301226,82.3931724 235.247931,82.4492993 235.183687,82.4894109 L235.116,82.524 L230.4,85.248 L230.414206,85.2227548 C230.318152,85.2973833 230.195548,85.3348027 230.069873,85.3228337 C229.879663,85.3047184 229.717716,85.1768297 229.656,84.996 L226.294,75.3157619 L202.356,61.488 C200.31,60.318 200.292,59.148 200.292,57.696 L200.292,39 C200.305428,38.7524168 200.336927,38.5081019 200.385544,38.2687117 C200.377705,38.2917079 200.370656,38.3156442 200.364,38.34 C200.615526,36.9866139 201.411568,35.7958045 202.566,35.046 C204.002774,34.3256825 205.695226,34.3256825 207.132,35.046 Z M164.82,71.46 C165.006,72.654 169.29,78.816 169.29,78.816 C168.764873,79.2039578 168.209324,79.5463448 167.629503,79.8402077 C167.91053,80.6410693 168.158246,81.4572204 168.372,82.284 L168.409447,82.4363412 C169.054247,80.4700757 169.748232,78.1675256 170.290791,76.2846754 L170.916,72.648 L166.487561,64.0658553 C165.427215,67.5562484 164.691555,70.6354662 164.82,71.46 Z M66.558,34.404 C67.3607927,34.9261423 67.9818375,35.671385 68.3526423,36.5370677 C68.3472351,36.5217264 68.3406565,36.5068471 68.334,36.492 C68.5934499,37.0231586 68.7327484,37.6049348 68.742,38.196 L68.742,56.07 C68.742,57.0887378 68.742,57.9628616 67.9658696,58.7840961 C67.6821096,59.0929006 67.2936395,59.3966719 66.762,59.7 L64.124,61.2224219 L60.834,70.722 C60.7851294,70.865792 60.6696218,70.9744465 60.5274632,71.0164216 L60.4392899,71.0333529 C60.409046,71.0361612 60.378998,71.0359626 60.3495066,71.0329462 C60.2610326,71.0238968 60.177569,70.9894867 60.1088595,70.9348221 C60.0906825,70.9203606 60.073538,70.9044815 60.0576065,70.8872795 L55.644,68.34 C55.5550081,68.3034872 55.4809929,68.237931 55.434,68.154 L54.609,66.7194219 L31.49,80.0764219 L31.254,80.214 C31.1335984,80.2811687 31.0093882,80.3412704 30.882,80.394 L30.8527761,80.3956587 L30.6290269,80.4777848 C30.6863437,80.4644529 30.7446725,80.4478686 30.8039691,80.4277505 C30.8303729,80.4200711 30.8562174,80.4101501 30.882,80.4 C30.8558025,80.4099581 30.8297693,80.4192786 30.8039691,80.4277505 C30.0160707,80.7247454 29.1729657,80.8075668 28.3566128,80.6820305 C27.8544378,80.6062874 27.3618142,80.4501675 26.898,80.214 C25.6076445,79.3783271 24.7956342,77.9751555 24.714,76.44 L24.714,58.56 C24.7190696,58.4646655 24.7269558,58.36984 24.7375984,58.2756279 C24.8000045,57.6130117 25.0108742,56.9717634 25.356,56.4 C25.3785735,56.366244 25.3993684,56.3315152 25.4206007,56.297052 L25.362,56.4 C25.7242538,55.7323242 26.2534839,55.1700172 26.898,54.768 L62.196,34.404 C63.5681149,33.7138959 65.1858851,33.7138959 66.558,34.404 Z M130.398,24.258 C131.070056,24.6971973 131.600899,25.302784 131.948891,26.0025447 C131.962918,26.0318693 131.977394,26.0614961 131.991541,26.0912934 C132.009043,26.1279626 132.025839,26.1650042 132.042129,26.202282 C132.063658,26.2505278 132.083954,26.2988313 132.1034,26.3475264 C132.108074,26.3614413 132.11369,26.3758531 132.119231,26.3902966 C132.217143,26.6405886 132.291654,26.9006459 132.342,27.168 L132.331287,27.1276999 C132.370894,27.3296586 132.396709,27.5355154 132.408,27.744 L132.405,29.921247 L133.668,29.922 C133.737935,29.9225734 133.807051,29.9346738 133.872629,29.9575938 L133.968,30 L138.174,32.4 C138.326336,32.4903337 138.43098,32.6433542 138.459909,32.8180813 C138.472464,32.8939129 138.4702,32.9704704 138.454208,33.0438444 C138.436249,33.1449221 138.392441,33.2418669 138.324,33.324 L132.408,40.158 L132.393,40.165247 L132.39,44.226 C132.39,45.4606154 132.39,46.4622426 130.789807,47.4549087 L130.59,47.574 L97.86,66.48 C97.672753,66.5741078 97.4805492,66.6542817 97.2848564,66.7205215 C97.3165913,66.7123848 97.3487913,66.7035231 97.3814716,66.6935698 C97.4280005,66.6826173 97.473102,66.6656843 97.518,66.648 C97.4718541,66.6652317 97.4262484,66.6803451 97.3814716,66.6935698 C96.2236649,67.1129604 94.9430459,67.0354725 93.84,66.48 C92.6533259,65.7069612 91.9066347,64.4141823 91.83,63 L91.8,46.512 C91.8299836,45.8119894 92.0363724,45.1309064 92.4,44.532 L92.5328543,44.3126794 C92.8590587,43.7979537 93.2972453,43.361968 93.816,43.038 L126.354,24.264 C126.509076,24.1861765 126.667537,24.1178804 126.828554,24.0591117 C127.989345,23.6245531 129.283568,23.6912317 130.398,24.258 Z M68.639113,37.4444944 L68.6463585,37.4857765 C68.6528874,37.5036419 68.6585725,37.5226882 68.664,37.542 C68.5990843,37.199948 68.4965023,36.866197 68.3568904,36.5473378 C68.4794893,36.834372 68.5742906,37.1347167 68.639113,37.4444944 Z" id="path-1"></path>
    </defs>
    <g id="Onboarding2-Image" stroke="none" fill="none" xlink:href="#path-1" fill-rule="evenodd" stroke-width="1">
        <g id="Group" transform="translate(14.088, 23.256)">
            <g id="freepik--Floor--inject-279" transform="translate(0, 103.29)" fill="#F5F5F5">
                <ellipse id="freepik--floor--inject-279" cx="139.806" cy="80.718" rx="139.806" ry="80.718"></ellipse>
            </g>
            <g id="freepik--Shadows--inject-279" transform="translate(17.58, 117.348)" fill="#E0E0E0">
                <ellipse id="freepik--Shadow--inject-279" cx="121.128" cy="17.544" rx="30.384" ry="17.544"></ellipse>
                <ellipse id="freepik--shadow--inject-279" cx="194.598" cy="101.064" rx="36.246" ry="22.032"></ellipse>
                <ellipse id="freepik--shadow--inject-279" cx="33.078" cy="85.23" rx="33.078" ry="19.098"></ellipse>
            </g>
            <g id="freepik--speech-bubbles--inject-279" transform="translate(10.626, 0.5202)">
                <g id="freepik--speach-bubble--inject-279" transform="translate(175.578, 10.7295)">
                    <path d="M30.108,50.7422381 L34.824,48.0182381 C34.9185655,47.9797281 34.9969683,47.9098013 35.046,47.8202381 L35.91,46.3082381 L33.108,44.6942381 L33.192,44.9402381 L30.108,50.7422381 Z" id="Path" fill="#2051B9"></path>
                    <g id="Group" opacity="0.1" transform="translate(30.108, 44.6942)" fill="#000000">
                        <path d="M0,6.048 L4.716,3.324 C4.81056555,3.28548992 4.88896828,3.21556316 4.938,3.126 L5.802,1.614 L3,0 L3.084,0.246 L0,6.048 Z" id="Path"></path>
                    </g>
                    <path d="M33.51,44.9222381 L30.246,50.5742381 C30.1512597,50.7401672 29.9680835,50.8351871 29.777873,50.8170718 C29.5876625,50.7989566 29.4257156,50.6710678 29.364,50.4902381 L25.908,40.5362381 L33.51,44.9222381 Z" id="Path" fill="#2051B9"></path>
                    <path d="M-1.36424205e-13,4.49423815 C0.0869274898,2.8914628 0.931215041,1.42565486 2.274,0.546238149 L2.274,0.546238149 C3.70731743,-0.179730195 5.40068257,-0.179730195 6.834,0.546238149 L43.746,21.8342381 C45.0910704,22.7123226 45.9377132,24.1783516 46.026,25.7822381 L46.026,44.4782381 C45.9386677,46.0824087 45.0917934,47.5488384 43.746,48.4262381 L43.746,48.4262381 C42.3126826,49.1522065 40.6193174,49.1522065 39.186,48.4262381 L2.064,26.9822381 C0.018,25.8122381 -1.36424205e-13,24.6422381 -1.36424205e-13,23.1902381 L-1.36424205e-13,4.49423815 Z" id="Path" fill="#2051B9"></path>
                    <path d="M33.756,31.9502381 L7.392,16.6502381 C6.63,16.2122381 6.012,16.4162381 6.012,17.1002381 C6.1244904,17.961368 6.63572672,18.7193314 7.392,19.1462381 L33.756,34.4402381 C34.518,34.8842381 35.136,34.6802381 35.136,33.9962381 C35.0235096,33.1351083 34.5122733,32.3771449 33.756,31.9502381 L33.756,31.9502381 Z" id="Path" fill="#455A64"></path>
                    <path d="M25.77,32.6522381 L7.392,21.9962381 C6.63,21.5582381 6.012,21.7622381 6.012,22.4462381 C6.1244904,23.307368 6.63572672,24.0653314 7.392,24.4922381 L25.77,35.1422381 C26.532,35.5862381 27.15,35.3822381 27.15,34.6982381 C27.0375096,33.8371083 26.5262733,33.0791449 25.77,32.6522381 L25.77,32.6522381 Z" id="Path" fill="#455A64"></path>
                    <path d="M33.756,26.5562381 L7.392,11.2622381 C6.63,10.8182381 6.012,11.0222381 6.012,11.7122381 C6.12629416,12.5726845 6.63703615,13.329915 7.392,13.7582381 L33.756,29.0522381 C34.518,29.4902381 35.136,29.2922381 35.136,28.6022381 C35.0217058,27.7417918 34.5109639,26.9845613 33.756,26.5562381 L33.756,26.5562381 Z" id="Path" fill="#455A64"></path>
                    <path d="M46.026,44.4722381 C45.9386677,46.0764087 45.0917934,47.5428384 43.746,48.4202381 L43.746,48.4202381 C42.4397646,49.0890658 40.9078096,49.159098 39.546,48.6122381 C40.62,49.0202381 41.436,48.4082381 41.436,47.1062381 L41.436,28.4042381 C41.409776,27.6115557 41.1804538,26.8388845 40.77,26.1602381 L45.33,23.5322381 C45.7377718,24.2120671 45.9668831,24.9840276 45.996,25.7762381 L46.026,44.4722381 Z" id="Path" fill="#000000" opacity="0.1"></path>
                    <path d="M0.072,3.83423815 C0.336,2.86823815 1.218,2.56223815 2.274,3.16823815 L39.192,24.4622381 C39.8655296,24.8781245 40.417971,25.463671 40.794,26.1602381 L45.348,23.5382381 C44.9703202,22.841275 44.4183546,22.2541655 43.746,21.8342381 L6.84,0.540238149 C5.40322624,-0.180079383 3.71077376,-0.180079383 2.274,0.540238149 L2.274,0.540238149 C1.11956831,1.29004264 0.323526297,2.48085209 0.072,3.83423815 L0.072,3.83423815 Z" id="Path" fill="#FFFFFF" opacity="0.3"></path>
                </g>
                <g id="freepik--speach-bubble--inject-279" transform="translate(0, 10.1102)">
                    <path d="M35.442,37.0575781 L30.93,34.4535781 C30.8410081,34.4170653 30.7669929,34.351509 30.72,34.2675781 L29.886,32.8155781 L32.562,31.2735781 L32.478,31.5075781 L35.442,37.0575781 Z" id="Path" fill="#2051B9"></path>
                    <g id="Group" opacity="0.55" transform="translate(29.886, 31.2736)" fill="#FFFFFF">
                        <path d="M5.556,5.784 L1.044,3.18 C0.955008094,3.14348723 0.880992943,3.07793095 0.834,2.994 L0,1.542 L2.676,0 L2.592,0.234 L5.556,5.784 Z" id="Path"></path>
                    </g>
                    <path d="M32.16,31.5135781 L35.28,36.9135781 C35.3694132,37.0723803 35.5438266,37.1637811 35.7252899,37.146931 C35.9067532,37.1300808 36.0613553,37.0081285 36.12,36.8355781 L39.42,27.3135781 L32.16,31.5135781 Z" id="Path" fill="#2051B9"></path>
                    <path d="M32.16,31.5135781 L35.28,36.9135781 C35.3694132,37.0723803 35.5438266,37.1637811 35.7252899,37.146931 C35.9067532,37.1300808 36.0613553,37.0081285 36.12,36.8355781 L39.42,27.3135781 L32.16,31.5135781 Z" id="Path" fill="#FFFFFF" opacity="0.7"></path>
                    <path d="M44.022,4.30957809 C43.9436008,2.77338388 43.1337266,1.36781702 41.844,0.529578088 L41.844,0.529578088 C40.4755906,-0.167196158 38.8564094,-0.167196158 37.488,0.529578088 L2.184,20.8995781 C0.893644463,21.735251 0.0816341674,23.1384226 0,24.6735781 L0,42.5535781 C0.0816341674,44.0887336 0.893644463,45.4919052 2.184,46.3275781 L2.184,46.3275781 C3.55240937,47.0243523 5.17159063,47.0243523 6.54,46.3275781 L42.048,25.8135781 C44.004,24.6975781 44.022,23.5755781 44.022,22.2135781 L44.022,4.30957809 Z" id="Path" fill="#2051B9"></path>
                    <path d="M44.028,4.30957809 L44.028,22.1835781 C44.028,23.5755781 44.028,24.6975781 42.048,25.7835781 L6.54,46.3275781 C6.41959842,46.3947468 6.29538825,46.4548485 6.168,46.5075781 L6.12,46.5075781 L6.06,46.5075781 L5.976,46.5375781 L6.012,46.5375781 C5.064,46.8075781 4.362,46.2195781 4.362,45.0435781 L4.362,27.1635781 C4.38954249,26.4054133 4.60832145,25.6665183 4.998,25.0155781 L4.998,25.0155781 C5.35681963,24.345426 5.88680423,23.7823174 6.534,23.3835781 L41.844,3.01957809 C42.852,2.41957809 43.692,2.73757809 43.95,3.65557809 C43.8813591,3.29389767 43.7706051,2.94149834 43.62,2.60557809 C43.8794499,3.13673665 44.0187484,3.71851288 44.028,4.30957809 L44.028,4.30957809 Z" id="Path" fill="#FFFFFF" opacity="0.7"></path>
                    <path d="M0.006,42.5535781 C0.0862812819,44.0876154 0.895931353,45.4905628 2.184,46.3275781 L2.184,46.3275781 C3.4246252,46.9552052 4.87429502,47.0228855 6.168,46.5135781 C5.142,46.9035781 4.368,46.3155781 4.368,45.0735781 L4.368,27.1935781 C4.39554249,26.4354133 4.61432145,25.6965183 5.004,25.0455781 L0.642,22.5135781 C0.247669884,23.1668574 0.0286063583,23.9108468 0.006,24.6735781 L0.006,42.5535781 Z" id="Path" fill="#FFFFFF" opacity="0.55"></path>
                    <path d="M43.95,3.68557809 C43.698,2.76157809 42.852,2.48557809 41.85,3.04957809 L6.54,23.4135781 C5.89572725,23.8132915 5.3664201,24.3736127 5.004,25.0395781 L0.648,22.5135781 C1.01025382,21.8459023 1.53948392,21.2835953 2.184,20.8815781 L37.482,0.517578088 C38.8541149,-0.172526029 40.4718851,-0.172526029 41.844,0.517578088 L41.844,0.517578088 C42.9523538,1.23845963 43.7142746,2.38459698 43.95,3.68557809 Z" id="Path" fill="#FFFFFF" opacity="0.85"></path>
                    <path d="M10.218,31.4535781 L35.418,16.8195781 C36.15,16.3995781 36.738,16.5915781 36.738,17.2515781 C36.6309987,18.0752274 36.1417804,18.80016 35.418,19.2075781 L10.218,33.8355781 C9.492,34.2555781 8.898,34.0635781 8.898,33.4095781 C9.00771129,32.5869558 9.49618609,31.863125 10.218,31.4535781 Z" id="Path" fill="#455A64"></path>
                    <path d="M10.218,36.6255781 L27.798,26.4255781 C28.524,26.0055781 29.118,26.1975781 29.118,26.8575781 C29.0056246,27.6791856 28.517876,28.4019403 27.798,28.8135781 L10.218,39.0135781 C9.492,39.4395781 8.898,39.2475781 8.898,38.5875781 C9.00593509,37.7627494 9.49463851,37.0363584 10.218,36.6255781 L10.218,36.6255781 Z" id="Path" fill="#455A64"></path>
                    <path d="M10.218,26.2935781 L35.418,11.6655781 C36.15,11.2455781 36.738,11.4375781 36.738,12.0975781 C36.6291869,12.9205413 36.1404662,13.6447365 35.418,14.0535781 L10.218,28.6815781 C9.492,29.1015781 8.898,28.9095781 8.898,28.2495781 C9.00771129,27.4269558 9.49618609,26.703125 10.218,26.2935781 Z" id="Path" fill="#455A64"></path>
                </g>
                <g id="freepik--speach-bubble--inject-279" transform="translate(67.086, 0)">
                    <path d="M42.168,6.22375304 C42.0759633,6.17340896 41.9729025,6.14661315 41.868,6.14575304 L36.402,6.14575304 L34.146,7.42375304 L34.146,15.223753 L36.402,13.921753 L38.352,11.665753 L38.352,17.665753 L40.608,16.363753 L46.524,9.52975304 C46.6390936,9.39514296 46.6888371,9.21656147 46.6599088,9.04183437 C46.6309805,8.86710727 46.5263359,8.71408672 46.374,8.62375304 L42.168,6.22375304 Z" id="Path" fill="#455A64"></path>
                    <path d="M38.352,17.683753 L40.608,16.381753 L46.524,9.54775304 C46.6717703,9.37042014 46.7047075,9.12404002 46.6087069,8.91411878 C46.5127064,8.70419755 46.3047928,8.56796257 46.074,8.56375304 L40.608,8.56375304 L38.352,9.86575304 L38.352,17.683753 Z" id="Path" fill="#37474F"></path>
                    <path d="M40.608,3.96775304 C40.5313252,2.55198096 39.7848756,1.25739213 38.598,0.481753044 L38.598,0.481753044 C37.3349771,-0.160584348 35.8410229,-0.160584348 34.578,0.481753044 L2.04,19.255753 C0.854049686,20.0294777 0.107590355,21.321855 0.03,22.735753 L0.03,39.223753 C0.106634669,40.6379354 0.853325891,41.9307142 2.04,42.703753 L2.04,42.703753 C3.30463221,43.3393405 4.79536779,43.3393405 6.06,42.703753 L38.79,23.797753 C40.59,22.765753 40.59,21.733753 40.59,20.449753 L40.608,3.96775304 Z" id="Path" fill="#37474F"></path>
                    <path d="M0.03,39.223753 C0.106634669,40.6379354 0.853325891,41.9307142 2.04,42.703753 L2.04,42.703753 C3.18614477,43.2809293 4.5240103,43.342039 5.718,42.871753 C4.77,43.225753 4.05,42.685753 4.05,41.539753 L4.05,25.057753 C4.07629107,24.3571192 4.28295505,23.6751281 4.65,23.077753 L0.6,20.755753 C0.236372381,21.3546594 0.0299835874,22.0357424 0,22.735753 L0.03,39.223753 Z" id="Path" fill="#263238"></path>
                    <path d="M40.542,3.39175304 C40.308,2.53975304 39.534,2.26975304 38.604,2.79175304 L6.06,21.577753 C5.46304338,21.9429797 4.97425701,22.4607619 4.644,23.077753 L0.6,20.761753 C0.935506784,20.1485602 1.42313752,19.6320022 2.016,19.261753 L34.554,0.487753044 C35.8207198,-0.147938812 37.3132802,-0.147938812 38.58,0.487753044 L38.58,0.487753044 C39.606563,1.14368931 40.3165556,2.19456521 40.542,3.39175304 L40.542,3.39175304 Z" id="Path" fill="#455A64"></path>
                    <path d="M10.608,28.423753 L33.858,14.941753 C34.53,14.551753 35.058,14.725753 35.058,15.337753 C34.9600805,16.0918665 34.5164434,16.7573222 33.858,17.137753 L10.608,30.637753 C9.936,31.021753 9.408,30.847753 9.408,30.241753 C9.50058575,29.4810339 9.94490127,28.8078959 10.608,28.423753 L10.608,28.423753 Z" id="Path" fill="#2051B9"></path>
                    <path d="M17.652,29.119753 L33.852,19.729753 C34.524,19.339753 35.052,19.519753 35.052,20.125753 C34.9558669,20.8805347 34.5117473,21.5467141 33.852,21.925753 L17.652,31.315753 C16.98,31.705753 16.452,31.531753 16.452,30.919753 C16.5499195,30.1656395 16.9935566,29.5001839 17.652,29.119753 Z" id="Path" fill="#2051B9"></path>
                    <path d="M10.608,23.683753 L33.858,10.195753 C34.53,9.81175304 35.058,9.98575304 35.058,10.591753 C34.9600805,11.3458665 34.5164434,12.0113222 33.858,12.391753 L10.608,25.879753 C9.936,26.269753 9.408,26.095753 9.408,25.483753 C9.50591946,24.7296395 9.94955656,24.0641839 10.608,23.683753 L10.608,23.683753 Z" id="Path" fill="#2051B9"></path>
                </g>
            </g>
            <g id="freepik--character-3--inject-279" transform="translate(172.2358, 65.7461)">
                <g id="freepik--character--inject-279" transform="translate(52.5302, 29.4696)" fill="#2051B9">
                    <path d="M-1.36424205e-13,0.172288526 C3.09,-0.517711474 6.6,0.772288526 8.934,5.72828853 C11.19,10.4562885 17.718,24.3702885 17.868,27.7062885 C18.024,31.1682885 3.93,41.9502885 4.326,41.7642885 C4.446,41.7042885 1.176,35.0982885 1.176,35.0982885 L8.346,26.1882885 L4.29,18.2022885 L-1.36424205e-13,0.172288526 Z" id="Path"></path>
                </g>
                <g id="freepik--character--inject-279" opacity="0.35" transform="translate(52.5302, 29.4696)" fill="#000000">
                    <path d="M-1.36424205e-13,0.172288526 C3.09,-0.517711474 6.6,0.772288526 8.934,5.72828853 C11.19,10.4562885 17.718,24.3702885 17.868,27.7062885 C18.024,31.1682885 3.93,41.9502885 4.326,41.7642885 C4.446,41.7042885 1.176,35.0982885 1.176,35.0982885 L8.346,26.1882885 L4.29,18.2022885 L-1.36424205e-13,0.172288526 Z" id="Path"></path>
                </g>
                <path d="M57.9241963,141.835929 C58.3321963,141.991929 58.5661963,142.765929 58.7521963,144.655929 C58.8601963,145.855929 59.2621963,147.379929 57.4741963,148.327929 C56.1533785,149.009277 54.5811243,148.993554 53.2741963,148.285929 C51.7261963,147.325929 50.9401963,145.549929 49.1281963,144.127929 C47.5321963,142.879929 45.5281963,141.955929 44.2441963,139.681929 C42.9601963,137.407929 43.1641963,135.895929 45.8041963,135.895929 C50.0521963,135.895929 51.3241963,138.235929 53.5081963,138.295929 C54.7021963,138.307929 57.5101963,141.685929 57.9241963,141.835929 Z" id="Path" fill="#263238"></path>
                <path d="M57.9181963,140.905929 L57.9181963,142.813929 C57.9181963,143.743929 53.9521963,145.135929 52.8421963,143.005929 C52.7581963,142.819929 52.3261963,140.203929 52.3261963,140.203929 L57.9181963,140.905929 Z" id="Path" fill="#FFA8A7"></path>
                <path d="M39.5221963,152.947929 C39.5221963,152.947929 40.2781963,152.947929 40.5721963,156.025929 C40.6861963,157.225929 40.9681963,159.625929 40.5721963,160.477929 C40.1761963,161.329929 38.0041963,161.731929 35.5681963,161.947929 C33.7681963,162.109929 32.1121963,162.991929 30.4321963,163.939929 C28.8393311,164.836795 27.0515459,165.331114 25.2241963,165.379929 C22.9201963,165.379929 20.9701963,165.145929 19.3321963,163.849929 C18.4621963,163.159929 17.3521963,161.707929 18.1621963,160.609929 C18.4992853,160.277308 18.9272441,160.051846 19.3921963,159.961929 C20.4181963,159.577929 21.4501963,159.229929 22.4941963,158.899929 C24.0551634,158.436864 25.577754,157.853104 27.0481963,157.153929 C29.1961963,156.091929 31.5901963,154.909929 33.2161963,153.097929 L39.5221963,152.947929 Z" id="Path" fill="#263238"></path>
                <path d="M39.5101963,151.357929 L39.5101963,153.583929 C39.5101963,154.393929 38.5741963,155.599929 36.0961963,155.527929 C34.3621963,155.473929 33.1441963,155.011929 33.2041963,153.577929 L33.2041963,151.519929 L39.5101963,151.357929 Z" id="Path" fill="#FFA8A7"></path>
                <path d="M59.0281963,115.597929 C58.5874435,112.222386 57.8157281,108.898383 56.7241963,105.673929 C56.7241963,105.673929 57.3601963,97.0939286 57.6481963,88.9579286 C57.8978533,80.6234747 57.6654656,72.2815574 56.9521963,63.9739286 C56.9521963,63.9739286 29.3161963,61.3579286 28.8601963,71.5099286 C28.4041963,81.6619286 29.0641963,107.509929 29.4241963,111.961929 C29.7841963,116.413929 30.1381963,120.595929 31.0861963,128.893929 C31.8961963,136.039929 33.2101963,151.549929 33.2101963,151.549929 C35.2052267,152.552527 37.5693305,152.491736 39.5101963,151.387929 C39.5101963,151.387929 41.5921963,130.561929 41.8321963,125.419929 C42.1441963,118.747929 40.5901963,115.069929 40.5901963,115.069929 C40.5901963,115.069929 41.1901963,110.869929 42.2041963,102.241929 C42.9301963,96.1519286 43.8961963,89.2099286 43.8961963,89.2099286 C43.8961963,89.2099286 44.8441963,97.8019286 45.4141963,102.589929 C45.9481963,107.029929 46.8481963,110.539929 48.1801963,118.819929 C49.3381963,126.019929 52.4941963,141.199929 52.4941963,141.199929 C55.7401963,142.933929 57.8941963,140.935929 57.8941963,140.935929 C57.8941963,140.935929 59.9341963,121.801929 59.0281963,115.597929 Z" id="Path" fill="#37474F"></path>
                <path d="M43.8961963,89.1979286 L45.2041963,80.7139286 C45.2041963,80.7139286 50.6041963,78.9979286 53.3161963,75.7999286 C53.3161963,75.7999286 51.8581963,79.5259286 46.8481963,81.5299286 L44.8381963,88.6759286 L44.4961963,94.5679286 L43.8961963,89.1979286 Z" id="Path" fill="#000000"></path>
                <polygon id="Path" fill="#FFA8A7" points="39.3601963 27.1699286 40.6501963 36.2359286 48.8101963 35.9539286 48.0241963 25.3579286"></polygon>
                <path d="M33.5041963,15.9979286 C33.5041963,15.9979286 31.3141963,19.2079286 31.5541963,19.5319286 C31.7941963,19.8559286 33.3541963,20.1619286 33.3541963,20.1619286 L33.5041963,15.9979286 Z" id="Path" fill="#F28F8F"></path>
                <path d="M34.2181963,18.0679286 C32.748032,18.0412558 31.5774903,16.8284832 31.6029189,15.3582969 C31.6283475,13.8881105 32.8401291,12.7165429 34.3103364,12.7407273 C35.7805437,12.7649117 36.9531364,13.9757014 36.9301963,15.4459286 C36.9039093,16.918249 35.6905654,18.091327 34.2181963,18.0679286 Z M34.2961963,13.3339286 C33.1531417,13.3174827 32.2131591,14.2307366 32.1966331,15.37379 C32.1801071,16.5168434 33.0932953,17.45689 34.2363475,17.473496 C35.3793997,17.490102 36.3195102,16.5769797 36.3361963,15.4339286 C36.3442107,14.8849136 36.1337716,14.3552071 35.7511851,13.961368 C35.3685986,13.5675289 34.8452129,13.3418277 34.2961963,13.3339286 L34.2961963,13.3339286 Z" id="Shape" fill="#263238" fill-rule="nonzero"></path>
                <path d="M39.5821963,7.0939286 C35.2381963,7.9399286 33.9601963,9.8179286 33.4441963,16.6939286 C32.9041963,23.8639286 33.6001963,26.1319286 34.5301963,27.1159286 C35.1601963,27.7759286 38.6941963,27.9499286 40.4881963,27.4879286 C42.7321963,26.8879286 47.8081963,25.1959286 50.2321963,21.6259286 C53.0821963,17.4259286 53.9041963,11.6719286 50.9581963,9.2599286 C46.8241963,5.8639286 41.3461963,6.7519286 39.5821963,7.0939286 Z" id="Path" fill="#FFA8A7"></path>
                <path d="M39.4261963,27.6619286 C37.5601963,27.8719286 35.0521963,27.6619286 34.5301963,27.1099286 C36.1213053,27.09603 37.6959994,26.7867877 39.1741963,26.1979286 L39.4261963,27.6619286 Z" id="Path" fill="#F28F8F"></path>
                <path d="M31.8841963,8.7979286 C31.8717241,9.42522816 32.0846077,10.0362042 32.4841963,10.5199286 C33.236223,11.3219693 34.3631068,11.6547557 35.4301963,11.3899286 C35.177264,12.0732142 35.3151094,12.8399434 35.7901978,13.3923427 C36.2652861,13.944742 37.0027556,14.1957674 37.7161963,14.0479286 C37.5061963,14.0959286 38.0581963,15.6979286 38.1121963,15.8479286 C38.2795262,16.4501302 38.6935956,16.9535514 39.2521963,17.2339286 C39.2521963,17.2339286 40.0141963,14.4679286 42.3481963,14.8339286 C44.6821963,15.1999286 44.9701963,18.2299286 43.4581963,20.0299286 C41.9461963,21.8299286 40.5721963,21.1099286 40.5721963,21.1099286 C40.5721963,21.1099286 40.5721963,25.0819286 42.3001963,27.3559286 C42.3001963,27.3559286 44.2921963,28.0399286 47.9881963,27.3079286 C50.2561963,26.8639286 53.5021963,24.0859286 54.8941963,21.1159286 C57.8401963,14.8219286 58.1281963,9.1159286 54.1081963,7.3519286 C53.9521963,7.2799286 53.8921963,6.4999286 53.8441963,6.3319286 C53.7334609,5.88653484 53.5575637,5.45993379 53.3221963,5.0659286 C52.7767617,4.21264564 51.9979448,3.53378387 51.0781963,3.1099286 C49.7234369,2.53579227 48.27132,2.22622457 46.8001963,2.1979286 C45.3346166,2.16777721 43.8738668,2.0192944 42.4321963,1.7539286 C41.1421963,1.4539286 39.9301963,0.901928604 38.6701963,0.493928604 C37.4286265,0.0168204695 36.0816573,-0.11787645 34.7701963,0.103928604 C33.4410088,0.356672952 32.3734474,1.34731405 32.0221963,2.6539286 C31.7401963,4.1119286 32.5861963,5.3239286 33.4681963,6.3919286 C32.4892607,6.78464963 31.8510547,7.73719593 31.8600993,8.7919286 L31.8841963,8.7979286 Z" id="Path" fill="#263238"></path>
                <path d="M53.5561963,8.7979286 L56.1661963,7.3099286 C55.9003907,6.84369696 55.4060446,6.55468675 54.8693734,6.55174298 C54.3327021,6.54884392 53.8352389,6.83245514 53.5643733,7.29576537 C53.2935077,7.75907561 53.2903906,8.331697 53.5561963,8.7979286 L53.5561963,8.7979286 Z" id="Path" fill="#263238"></path>
                <path d="M39.2341963,18.7819286 L39.3601963,15.7819286 C38.7979032,15.7136647 38.2448608,15.9666766 37.9288543,16.4367547 C37.6128479,16.9068328 37.5873272,17.5144673 37.8628037,18.0093877 C38.1382802,18.504308 38.6681594,18.8028027 39.2341963,18.7819286 Z" id="Path" fill="#263238"></path>
                <polygon id="Path" fill="#263238" points="31.8541963 14.8099286 39.8881963 15.9799286 39.5521963 16.5379286 31.8481963 15.4159286"></polygon>
                <path d="M57.8161963,34.6639286 C56.8621963,30.9439286 55.5181963,29.7259286 52.2781963,29.6419286 C50.6067057,29.7514083 48.9435524,29.963811 47.2981963,30.2779286 C46.9561963,31.8499286 42.8941963,32.9179286 38.7781963,32.0779286 C37.5781963,32.4319286 34.3201963,33.3139286 33.3001963,33.6799286 C30.3901963,34.7359286 28.9801963,37.7599286 28.7881963,47.3599286 C28.7881963,47.3599286 28.2301963,70.1119286 28.7881963,74.0419286 C36.1261963,76.9039286 43.7461963,76.7779286 47.9521963,75.8419286 C56.7061963,73.8799286 57.7441963,70.2379286 57.7441963,70.2379286 C57.7441963,70.2379286 57.2881963,61.1059286 56.9881963,54.1579286 C57.4261963,49.7359286 58.0861963,46.4119286 58.3261963,42.8839286 C58.5392354,40.1335437 58.3675815,37.3668857 57.8161963,34.6639286 L57.8161963,34.6639286 Z" id="Path" fill="#2051B9"></path>
                <g id="Group" opacity="0.2" transform="translate(28.5402, 29.6419)" fill="#000000">
                    <path d="M29.276,5.022 C28.322,1.302 26.978,0.084 23.738,0 C22.0665094,0.109479695 20.4033561,0.321882414 18.758,0.636 C18.416,2.208 14.354,3.276 10.238,2.436 C9.038,2.79 5.78,3.672 4.76,4.038 C1.85,5.094 0.44,8.118 0.248,17.718 C0.248,17.718 -0.31,40.47 0.248,44.4 C7.586,47.262 15.206,47.136 19.412,46.2 C28.166,44.238 29.204,40.596 29.204,40.596 C29.204,40.596 28.748,31.464 28.448,24.516 C28.886,20.094 29.546,16.77 29.786,13.242 C29.9990392,10.4916151 29.8273852,7.72495708 29.276,5.022 L29.276,5.022 Z" id="Path"></path>
                </g>
                <path d="M48.2161963,27.9199286 L48.2761963,28.7959286 C48.2761963,28.7959286 47.8501963,29.9959286 45.3721963,30.4879286 C41.2141963,31.2619286 39.7561963,29.9659286 39.7561963,29.9659286 L39.6541963,29.2159286 C39.6541963,29.2159286 39.2521963,29.0539286 38.5741963,29.5759286 C37.5484862,30.6404113 36.5887019,31.7665048 35.7001963,32.9479286 C35.7001963,32.9479286 36.4921963,32.7139286 39.0901963,33.8179286 C41.684424,34.8316927 44.5450129,34.9395197 47.2081963,34.1239286 C48.7194423,33.6238057 49.8506886,32.3577239 50.1781963,30.7999286 C50.2801963,30.0379286 48.9301963,27.6139286 48.2161963,27.9199286 Z" id="Path" fill="#2051B9"></path>
                <path d="M48.2161963,27.9199286 L48.2761963,28.7959286 C48.2761963,28.7959286 47.8501963,29.9959286 45.3721963,30.4879286 C41.2141963,31.2619286 39.7561963,29.9659286 39.7561963,29.9659286 L39.6541963,29.2159286 C39.6541963,29.2159286 39.2521963,29.0539286 38.5741963,29.5759286 C37.5484862,30.6404113 36.5887019,31.7665048 35.7001963,32.9479286 C35.7001963,32.9479286 36.4921963,32.7139286 39.0901963,33.8179286 C41.684424,34.8316927 44.5450129,34.9395197 47.2081963,34.1239286 C48.7194423,33.6238057 49.8506886,32.3577239 50.1781963,30.7999286 C50.2801963,30.0379286 48.9301963,27.6139286 48.2161963,27.9199286 Z" id="Path" fill="#000000" opacity="0.35"></path>
                <path d="M32.3821963,34.0459286 C28.9081963,34.7179286 25.8601963,36.3019286 25.9201963,40.4179286 C25.9406855,45.6753638 25.0661987,50.8979371 23.3341963,55.8619286 C22.2541963,59.2759286 13.3561963,69.4879286 11.1601963,70.1239286 C8.96419627,70.7599286 5.81419627,69.3859286 5.05219627,70.4899286 C4.29019627,71.5939286 7.31419627,72.9439286 7.45219627,73.4899286 C7.59019627,74.0359286 3.73819627,75.5479286 1.40419627,75.1459286 C-0.929803726,74.7439286 -0.359803726,77.5999286 3.15619627,79.1719286 C6.67219627,80.7439286 11.0221963,78.9379286 15.1921963,75.8179286 C19.3621963,72.6979286 27.7081963,66.0379286 29.8621963,61.4179286 C32.4721963,55.8499286 33.9301963,50.6179286 34.2481963,46.5979286 C34.8001963,38.3599286 32.3821963,34.0459286 32.3821963,34.0459286 Z" id="Path" fill="#FFA8A7"></path>
                <path d="M32.7961963,33.8359286 C32.7961963,33.8359286 29.1961963,33.8359286 27.0481963,35.9779286 C25.2121963,37.7779286 24.9721963,40.7299286 24.4621963,46.5139286 C24.2071052,49.5610333 23.6524261,52.5755935 22.8061963,55.5139286 C22.3741963,56.9839286 16.2721963,65.4559286 16.2721963,65.4559286 C16.2721963,65.4559286 18.7561963,69.1519286 21.2461963,71.1259286 C21.2461963,71.1259286 26.8441963,66.5119286 29.6941963,62.6419286 C32.5441963,58.7719286 34.4761963,47.7979286 34.4761963,47.7979286 C34.4761963,47.7979286 35.9341963,39.3979286 32.7961963,33.8359286 Z" id="Path" fill="#2051B9"></path>
                <path d="M32.7961963,33.8359286 C32.7961963,33.8359286 29.1961963,33.8359286 27.0481963,35.9779286 C25.2121963,37.7779286 24.9721963,40.7299286 24.4621963,46.5139286 C24.2071052,49.5610333 23.6524261,52.5755935 22.8061963,55.5139286 C22.3741963,56.9839286 16.2721963,65.4559286 16.2721963,65.4559286 C16.2721963,65.4559286 18.7561963,69.1519286 21.2461963,71.1259286 C21.2461963,71.1259286 26.8441963,66.5119286 29.6941963,62.6419286 C32.5441963,58.7719286 34.4761963,47.7979286 34.4761963,47.7979286 C34.4761963,47.7979286 35.9341963,39.3979286 32.7961963,33.8359286 Z" id="Path" fill="#000000" opacity="0.35"></path>
                <path d="M16.5601963,65.0719286 C17.7992445,67.3483729 19.5591487,69.2994816 21.6961963,70.7659286 C21.6961963,70.7659286 19.7161963,72.4459286 18.6481963,73.1179286 C18.6481963,73.1179286 15.7021963,72.0679286 13.9141963,68.0239286 L16.5601963,65.0719286 Z" id="Path" fill="#2051B9"></path>
                <path d="M16.5601963,65.0719286 C17.7992445,67.3483729 19.5591487,69.2994816 21.6961963,70.7659286 C21.6961963,70.7659286 19.7161963,72.4459286 18.6481963,73.1179286 C18.6481963,73.1179286 15.7021963,72.0679286 13.9141963,68.0239286 L16.5601963,65.0719286 Z" id="Path" fill="#000000" opacity="0.5"></path>
                <path d="M15.4861963,67.8079286 C15.6045656,68.001624 15.8499749,68.0748403 16.0551238,67.9776645 C16.2602727,67.8804887 16.3590841,67.6442205 16.2841963,67.4299286 C16.2281431,67.2695322 16.0854684,67.1551897 15.9167138,67.1354205 C15.7479591,67.1156513 15.5827202,67.1939224 15.4911133,67.3370207 C15.3995065,67.4801191 15.3975974,67.6629486 15.4861963,67.8079286 Z" id="Path" fill="#263238"></path>
            </g>
            <g id="freepik--character-2--inject-279" transform="translate(97.3769, 0)">
                <path d="M31.8990507,24.066 L41.0850507,24.066 C48.4845617,24.066 54.4830507,18.0675111 54.4830507,10.668 L54.4830507,10.668 C54.4830507,4.77622629 49.7068244,0 43.8150507,0 L42.5670507,0 C36.6752769,0 31.8990507,4.77622629 31.8990507,10.668 L31.8990507,24.066 Z" id="Path" fill="#263238"></path>
                <path d="M30.8430507,31.428 C28.5810507,35.736 26.4390507,40.992 24.7650507,42.732 C21.5850507,44.214 14.3250507,46.974 11.4090507,47.358 C10.8932554,47.4205496 10.3720566,47.2971637 9.93905065,47.01 C8.79305065,46.26 7.90505065,46.134 6.69305065,45.72 C5.74505065,45.39 5.34305065,44.934 5.16905065,45.12 C4.78424737,45.5617089 4.82707871,46.2309487 5.26505065,46.62 C5.71782758,47.0550027 6.2214725,47.4337436 6.76505065,47.748 C5.46845011,48.0644784 4.11749122,48.0870286 2.81105065,47.814 C0.285050653,47.148 -0.908949347,48.366 0.801050653,51.108 C1.40105065,52.092 3.80105065,53.664 8.70905065,53.244 C10.4495168,53.1482519 12.1826471,52.94789 13.8990507,52.644 C18.5850507,51.648 23.5890507,50.184 26.7930507,49.23 C27.9808951,48.7577006 29.0442757,48.0186716 29.9010507,47.07 C35.3010507,40.932 37.9350507,35.49 40.2930507,31.512 L38.5770507,25.578 C34.7610507,25.434 32.7870507,27.744 30.8430507,31.428 Z" id="Path" fill="#B16668"></path>
                <path d="M38.5770507,25.548 C35.6370507,25.332 34.5210507,25.884 33.1770507,27.198 C29.9670507,30.354 25.0710507,42.366 24.9930507,42.462 C24.9150507,42.558 21.3570507,44.178 21.3570507,44.178 C21.3570507,44.178 23.2530507,47.352 22.8150507,50.358 C22.8150507,50.358 26.2890507,49.59 27.5310507,49.116 C28.7730507,48.642 29.2170507,48.312 30.3870507,46.956 C31.5570507,45.6 38.0970507,37.848 38.0970507,37.848 L38.5770507,25.548 Z" id="Path" fill="#263238"></path>
                <g id="freepik--character--inject-279" transform="translate(21.0259, 25.434)">
                    <path d="M11.2391077,13.548 C11.6784748,15.6498839 11.8478426,17.7992413 11.7431077,19.944 C11.5511077,22.764 9.54710769,27.93 9.54710769,27.93 C9.54710769,27.93 11.1251077,29.364 15.4211077,28.692 C18.9191077,28.146 17.6831077,17.598 15.6731077,15.552 C14.504276,14.343669 12.9183946,13.6269107 11.2391077,13.548 L11.2391077,13.548 Z" id="Path" fill="#37474F"></path>
                    <path d="M35.4491077,103.536 C35.6958043,104.922807 35.828249,106.327523 35.8451077,107.736 C35.8991077,110.298 36.3671077,111.204 36.4451077,113.304 C36.5171077,115.704 36.1031077,116.604 35.1311077,117.954 C34.1591077,119.304 31.5971077,120.528 30.5171077,118.242 C29.4371077,115.956 29.5751077,114.468 29.9171077,112.116 C30.2591077,109.764 30.3191077,108.336 30.5171077,106.482 C30.6971077,104.844 30.9131077,103.602 30.9131077,103.602 L35.4491077,103.536 Z" id="Path" fill="#263238"></path>
                    <path d="M28.1831077,83.412 L36.5831077,83.262 C36.4571077,88.89 35.5631077,98.262 35.4191077,103.536 C35.4191077,104.532 35.4191077,111.264 35.0651077,113.31 C34.5011077,116.382 30.8651077,115.968 30.6611077,114.126 C30.4571077,112.284 30.8951077,104.43 30.8831077,103.62 C30.9191077,100.236 29.3291077,91.398 28.4831077,85.314 C28.4891077,85.02 28.2191077,83.706 28.1831077,83.412 Z" id="Path" fill="#B16668"></path>
                    <path d="M15.7871077,99.156 C15.7871077,99.156 16.2251077,99.186 16.2971077,99.54 C16.3691077,99.894 16.3931077,100.626 16.5731077,101.34 C16.8550613,102.428078 16.95641,103.555075 16.8731077,104.676 C16.7231077,105.462 14.9291077,106.638 13.7051077,106.842 C12.4811077,107.046 10.7471077,108.258 9.78110769,109.164 C8.23996818,110.440657 6.33105209,111.191189 4.33310769,111.306 C2.28710769,111.306 0.859107692,110.628 0.181107692,109.506 C-0.496892308,108.384 0.781107692,108.276 3.13910769,106.758 L4.93910769,105.558 C8.64710769,103.158 10.0031077,101.838 11.0531077,99.414 L15.7871077,99.156 Z" id="Path" fill="#263238"></path>
                    <path d="M11.0411077,97.842 C11.1011077,96.096 10.2131077,83.262 10.2131077,83.262 L17.4611077,84.078 C15.7511077,94.308 15.6071077,97.8 15.8051077,99.288 L15.8051077,99.288 C15.8412592,99.4269995 15.8574216,99.570441 15.8531077,99.714 C15.8531077,101.706 13.5971077,102.774 11.8511077,104.1 C11.1551077,104.622 9.37910769,106.236 7.29710769,106.95 C5.95310769,107.406 3.45710769,107.58 3.13910769,106.764 C5.26910769,105.138 8.16710769,103.008 9.86510769,101.154 C10.6691077,100.266 10.9811077,99.582 11.0411077,97.842 Z" id="Path" fill="#B16668"></path>
                    <path d="M30.5771077,22.662 C33.0540823,25.917279 34.8572239,29.6337088 35.8811077,33.594 C38.2811077,43.26 34.5131077,63.942 34.5131077,63.942 C34.6331077,65.34 36.2351077,68.1 36.8351077,74.274 C37.5371077,81.564 35.5331077,101.088 35.5331077,101.088 C35.5331077,101.088 33.6011077,102.528 30.8111077,101.184 C30.8111077,101.184 25.7051077,72.504 24.8111077,65.256 C24.0131077,58.926 22.4111077,45.78 22.4111077,45.78 L18.7091077,65.22 C18.7091077,65.22 19.2191077,68.766 19.4771077,71.466 C19.8911077,75.726 15.7391077,97.134 15.7391077,97.134 C14.2266345,97.7610064 12.5207401,97.7261922 11.0351077,97.038 C11.0351077,97.038 9.19910769,69.39 8.80910769,64.254 C8.41310769,58.968 9.78710769,46.644 10.8011077,36.834 C11.1071077,33.876 12.5111077,26.034 13.0331077,23.478 L30.5771077,22.662 Z" id="Path" fill="#455A64"></path>
                    <path d="M22.3691077,45.78 L21.4991077,39.78 C18.994891,39.6289346 16.5696184,38.8466552 14.4491077,37.506 C15.9131982,39.3317826 18.0309041,40.5154597 20.3531077,40.806 L20.8991077,46.158 L19.1591077,62.856 L22.3691077,45.78 Z" id="Path" fill="#263238" opacity="0.6"></path>
                    <path d="M12.7091077,16.278 C12.7991077,18.036 13.0511077,23.478 13.0511077,23.478 C20.2511077,28.338 30.5891077,22.662 30.5891077,22.662 L32.0831077,12.462 C32.0831077,12.462 28.3331077,7.218 31.8491077,1.662 L26.2391077,0.552 L19.5491077,0 L17.5631077,0.09 C15.3671077,1.704 12.0011077,5.232 11.2931077,7.038 C10.5851077,8.844 9.50510769,12.51 12.7091077,16.278 Z" id="Path" fill="#2051B9"></path>
                    <g id="Group" opacity="0.6" transform="translate(10.5314, 0)" fill="#FFFFFF">
                        <path d="M2.17775348,16.278 C2.26775348,18.036 2.51975348,23.478 2.51975348,23.478 C9.71975348,28.338 20.0577535,22.662 20.0577535,22.662 L21.5517535,12.462 C21.5517535,12.462 17.8017535,7.218 21.3177535,1.662 L15.7077535,0.552 L9.01775348,0 L7.03175348,0.09 C4.83575348,1.704 1.46975348,5.232 0.76175348,7.038 C0.0537534796,8.844 -1.02624652,12.51 2.17775348,16.278 Z" id="Path"></path>
                    </g>
                    <path d="M26.5931077,0.648 C26.5931077,0.648 32.9471077,0.93 34.1531077,1.506 C35.3591077,2.082 37.3691077,5.55 35.5691077,10.602 C33.7691077,15.654 32.1431077,21.576 32.3291077,22.77 C32.5151077,23.964 36.7991077,30.126 36.7991077,30.126 C35.6144063,31.0012436 34.2748695,31.644547 32.8511077,32.022 L30.6551077,27.222 L31.1711077,32.328 C31.1711077,32.328 27.2111077,33.288 24.3851077,33.042 C24.3851077,33.036 22.1051077,13.71 26.5931077,0.648 Z" id="Path" fill="#37474F"></path>
                </g>
                <path d="M51.3270507,0 L50.5950507,2.796 C50.9634347,2.91805006 51.365906,2.88217982 51.7068999,2.6969065 C52.0478937,2.51163317 52.2969931,2.19348332 52.3950507,1.818 C52.5833439,1.02377736 52.1124582,0.222213554 51.3270507,0 L51.3270507,0 Z" id="Path" fill="#263238"></path>
                <path d="M53.7270722,2.544 L50.8410507,2.646 C50.8342397,3.02938783 50.9852031,3.39874396 51.2586014,3.66760451 C51.5319997,3.93646507 51.9038305,4.0812261 52.2870507,4.068 C53.0971365,4.02633128 53.7313278,3.35514551 53.7270722,2.544 L53.7270722,2.544 Z" id="Path" fill="#263238"></path>
                <path d="M36.0870507,5.07 C34.8870507,5.772 33.4230507,8.772 33.5670507,15.06 C33.6930507,20.388 35.4150507,21.708 36.2850507,22.086 C37.1550507,22.464 38.8230507,22.236 40.4490507,21.96 L40.4490507,25.158 C40.4490507,25.158 38.2050507,27.768 38.3430507,29.238 C38.4810507,30.708 41.5890507,31.038 43.6950507,29.616 C45.0573262,28.6391504 46.227028,27.418592 47.1450507,26.016 L47.1450507,17.718 C47.1450507,17.718 48.0330507,18.66 49.6110507,17.58 C50.2911361,17.1412795 50.7577972,16.4391564 50.8989639,15.6422475 C51.0401306,14.8453386 50.8430497,14.0256383 50.3550507,13.38 C49.8922534,12.9467797 49.2617278,12.7401093 48.63228,12.8153191 C48.0028321,12.8905288 47.4387498,13.2399373 47.0910507,13.77 C47.0910507,13.77 44.9070507,13.578 41.4510507,11.682 C38.8582538,10.2749916 36.9292515,7.89718337 36.0870507,5.07 Z" id="Path" fill="#B16668"></path>
                <path d="M40.1130507,13.722 C40.110133,14.0899123 40.4036184,14.3917668 40.7714673,14.3991922 C41.1393162,14.4066176 41.4447441,14.1168527 41.456676,13.7491224 C41.468608,13.3813921 41.1826072,13.0724367 40.8150507,13.056 C40.633625,13.0511628 40.4577145,13.1186273 40.32605,13.2435398 C40.1943855,13.3684523 40.1177622,13.540571 40.1130507,13.722 L40.1130507,13.722 Z" id="Path" fill="#263238"></path>
                <path d="M39.3390507,18.24 L37.7790507,18.732 C37.8362301,18.9428591 37.9761629,19.1216788 38.1670905,19.2278752 C38.3580181,19.3340717 38.5837483,19.3586384 38.7930507,19.296 C39.2289292,19.1475404 39.4699014,18.6814843 39.3390507,18.24 L39.3390507,18.24 Z" id="Path" fill="#9A4A4D"></path>
                <path d="M34.1730507,11.664 L35.5350507,10.722 C35.4185918,10.5387082 35.2324632,10.4107945 35.0196077,10.3677705 C34.8067521,10.3247465 34.5855553,10.3703285 34.4070507,10.494 C34.0317791,10.7606621 33.9292085,11.2735152 34.1730507,11.664 L34.1730507,11.664 Z" id="Path" fill="#263238"></path>
                <path d="M34.4850507,13.236 C34.4788368,13.6046408 34.7708043,13.9094482 35.1393712,13.9190957 C35.5079381,13.9287431 35.8154519,13.6396275 35.8285322,13.2711665 C35.8416124,12.9027055 35.5553738,12.5925119 35.1870507,12.576 C34.8115086,12.5658872 34.4980962,12.8605484 34.4850507,13.236 L34.4850507,13.236 Z" id="Path" fill="#263238"></path>
                <polygon id="Path" fill="#9A4A4D" points="38.2050507 12.852 38.0970507 16.89 35.9730507 16.23"></polygon>
                <path d="M40.4490507,21.96 C42.1650507,21.738 45.6930507,20.724 46.2390507,19.332 C46.0233325,20.0454893 45.5914621,20.6744268 45.0030507,21.132 C43.9530507,22.038 40.4490507,23.052 40.4490507,23.052 L40.4490507,21.96 Z" id="Path" fill="#9A4A4D"></path>
                <path d="M66.7350507,49.11 C65.6250507,44.784 60.9210507,35.31 59.5830507,31.842 C58.0590507,27.87 55.4310507,26.442 52.5930507,26.442 C51.5490507,27.786 51.1110507,34.548 54.3270507,38.442 C55.6950507,41.328 59.7990507,49.392 59.7990507,49.392 C59.6970507,50.172 56.8290507,60.192 55.5990507,62.856 C55.3790997,63.3217498 54.9943121,63.6894356 54.5190507,63.888 C53.2530507,64.44 51.7650507,65.826 50.7570507,66.612 C49.9650507,67.212 49.3590507,67.314 49.4130507,67.56 C49.6118007,68.1201238 50.2057814,68.4353504 50.7810507,68.286 C51.6405548,68.0093236 52.4787712,67.6704275 53.2890507,67.272 C52.5339374,68.4729711 51.6959,69.6197591 50.7810507,70.704 C49.0770507,72.672 49.1370507,74.352 52.4550507,74.406 C54.9630507,74.442 56.2890507,73.032 58.5150507,68.73 C59.1510507,67.494 59.8590507,65.628 60.6270507,64.038 C62.5650507,60.012 63.7890507,58.338 64.8270507,55.764 C66.5310507,51.666 67.1670507,50.778 66.7350507,49.11 Z" id="Path" fill="#B16668"></path>
                <path d="M51.3270507,26.328 C54.4710507,26.328 56.7930507,26.58 58.6050507,29.238 C60.4170507,31.896 66.0210507,45.882 66.6450507,47.694 C67.2690507,49.506 67.6770507,50.988 65.0670507,55.23 C62.8359622,55.0193816 60.6909403,54.2631635 58.8210507,53.028 L59.4510507,49.392 L53.9610507,38.754 C51.6955338,35.0320524 50.76644,30.6490156 51.3270507,26.328 Z" id="Path" fill="#263238"></path>
            </g>
            <g id="freepik--character-1--inject-279" transform="translate(14.5557, 52.4082)">
                <path d="M37.4162768,27.9977718 C41.0162768,29.1977718 41.8622768,29.4437718 44.3342768,33.2897718 C46.7342768,36.9797718 49.1342768,43.8077718 51.2762768,49.2797718 C55.2062768,48.1637718 63.5402768,46.2257718 66.2762768,44.6297718 C69.0122768,43.0337718 68.7542768,41.9237718 69.8762768,40.9037718 C71.1722768,39.7037718 72.5282768,36.8597718 73.5842768,38.4257718 C74.2922768,39.4817718 72.8222768,40.1897718 72.9122768,41.5277718 C73.0022768,42.8657718 77.0462768,39.7277718 78.7442768,38.5277718 C79.8662768,37.7417718 82.4702768,40.2077718 81.4262768,42.8777718 C80.5022768,45.2777718 79.0262768,46.7477718 76.3622768,47.8697718 C73.5602768,49.0697718 72.0962768,49.6697718 68.5622768,51.2297718 C64.8842768,52.8857718 49.7222768,59.5937718 48.2222768,58.6577718 C44.8082768,56.9717718 41.6822768,46.4057718 39.6122768,41.8577718 C37.5422768,37.3097718 38.9162768,32.5577718 37.4162768,27.9977718 Z" id="Path" fill="#FFA8A7"></path>
                <path d="M36.5582768,27.5357718 C38.0882768,29.5457718 37.4582768,28.7357718 37.9262768,31.8437718 C38.3102768,34.3457718 43.5722768,58.4597718 48.3422768,59.4437718 C50.4302768,59.8817718 65.5202768,52.9757718 69.1802768,50.9597718 C67.7984568,49.0513563 66.814923,46.8843171 66.2882768,44.5877718 C61.9022768,46.2977718 54.3422768,47.9897718 51.6302768,48.8357718 C50.3702768,45.3317718 48.8342768,41.7317718 47.3942768,38.1977718 C44.6522768,31.5077718 43.0982768,26.7197718 36.5582768,27.5357718 Z" id="Path" fill="#37474F"></path>
                <rect id="Rectangle" fill="#FFA8A7" transform="translate(19.0323, 141.8508) rotate(180) translate(-19.0323, -141.8508)" x="16.0922768" y="136.819772" width="5.88" height="10.062"></rect>
                <polygon id="Path" fill="#FFA8A7" points="37.9382768 140.629772 44.3522768 140.851772 44.6702768 129.223772 37.4042768 128.983772"></polygon>
                <path d="M16.8122768,68.3357718 C16.8122768,73.6877718 16.4402768,104.797772 16.4402768,104.797772 C16.3142768,106.339772 14.8322768,109.075772 14.7122768,114.619772 C14.5502768,122.665772 15.7862768,141.619772 15.7862768,141.619772 C17.7455811,142.583073 20.0313848,142.627031 22.0262768,141.739772 C22.0262768,141.739772 26.4242768,114.943772 27.4262768,106.987772 C28.3022768,100.039772 30.8102768,81.8597718 30.8102768,81.8597718 L34.5902768,105.475772 C34.1786118,108.3042 34.0740038,111.168851 34.2782768,114.019772 C34.5422768,117.697772 37.3262768,136.003772 37.3262768,136.003772 C39.752974,136.801817 42.3678791,136.824884 44.8082768,136.069772 C44.8082768,136.069772 45.4082768,107.551772 45.4562768,104.173772 C45.5282768,100.321772 43.8482768,67.1897718 43.8482768,67.1897718 L16.8122768,68.3357718 Z" id="Path" fill="#263238"></path>
                <path d="M21.9662768,143.983772 L21.9662768,143.143772 C22.2842768,143.143772 22.4762768,143.449772 22.5962768,144.205772 C22.6862768,144.751772 22.7642768,145.159772 22.9442768,145.873772 C23.2039708,146.900055 23.5471131,147.903395 23.9702768,148.873772 C24.7982768,150.919772 25.5002768,151.687772 27.4022768,154.075772 C28.0437745,154.741215 28.6448502,155.444473 29.2022768,156.181772 C29.5562768,156.811772 29.6822768,158.581772 29.0762768,158.977772 C26.8622768,160.453772 23.4902768,160.495772 21.1022768,159.799772 C19.301012,159.29211 17.9590351,157.78385 17.6642768,155.935772 C17.5802768,155.389772 17.6102768,154.837772 17.5502768,154.291772 C17.340955,153.052411 16.8367936,151.881522 16.0802768,150.877772 C15.6369636,150.30003 15.256796,149.676475 14.9462768,149.017772 C14.4542768,147.817772 14.8502768,146.449772 15.1682768,145.249772 C15.4382768,144.205772 15.7322768,143.065772 16.0862768,143.161772 L16.0862768,143.803772 C16.9235911,144.46145 17.961693,144.811015 19.0262768,144.793772 C19.8902768,144.811772 21.9722768,144.643772 21.9662768,143.983772 Z" id="Path" fill="#263238"></path>
                <path d="M44.4182768,138.871772 C44.7542768,138.871772 45.0182768,139.351772 45.7562768,140.149772 C46.8572035,141.257091 48.1346321,142.173595 49.5362768,142.861772 C51.9362768,144.061772 56.6102768,145.915772 58.7282768,146.869772 C60.0482768,147.469772 59.9822768,149.059772 58.6202768,149.971772 C57.2582768,150.883772 53.9582768,151.531772 49.9982768,150.649772 C47.8382768,150.163772 45.0362768,148.171772 43.2542768,148.279772 C41.4722768,148.387772 38.1542768,148.363772 36.8402768,147.457772 C35.5262768,146.551772 36.0542768,144.619772 36.4262768,142.963772 C36.8282768,141.163772 37.2362768,138.331772 37.8362768,138.451772 L37.8362768,139.129772 C38.6102768,140.293772 42.6362768,140.719772 44.3582768,139.861772 L44.4182768,138.871772 Z" id="Path" fill="#263238"></path>
                <path d="M30.8102768,81.8597718 C30.8102768,81.8597718 35.8082768,80.2277718 39.1322768,77.0177718 C39.1322768,77.0177718 37.6262768,79.8377718 33.1322768,82.4597718 L34.2242768,103.135772 L30.8102768,81.8597718 Z" id="Path" fill="#000000"></path>
                <path d="M26.4722768,27.4637718 C25.2722768,27.7517718 22.4102768,28.0997718 20.3042768,28.7057718 C18.7562768,29.1497718 18.1022768,31.0397718 17.7782768,32.4677718 C16.7402768,37.0277718 16.5782768,46.5977718 16.5782768,46.5977718 L16.5182768,68.8817718 C20.3822768,71.6897718 36.2402768,73.1177718 44.3582768,67.1897718 C44.3582768,67.1897718 43.3682768,40.6457718 43.3682768,36.5177718 C43.3682768,32.3897718 41.0702768,27.4217718 34.7342768,27.0557718 L26.4722768,27.4637718 Z" id="Path" fill="#455A64"></path>
                <path d="M9.54027684,58.7957718 C9.54027684,58.7957718 14.4602768,66.2657718 15.3062768,67.2377718 C16.1522768,68.2097718 16.7282768,67.8917718 17.6402768,67.4597718 C18.7479731,66.9782806 19.8889282,66.5772419 21.0542768,66.2597718 C22.5602768,65.8577718 22.8542768,67.3457718 21.3962768,68.4017718 C20.3162768,69.1637718 19.0862768,69.4997718 19.5962768,70.1297718 C20.6371157,71.1339078 21.8586163,71.9319548 23.1962768,72.4817718 C26.7962768,74.0117718 26.9522768,74.9417718 26.2802768,76.2017718 C25.6802768,77.2937718 23.5382768,80.2817718 17.0462768,77.4977718 C14.3702768,76.3457718 10.6562768,72.2837718 8.88027684,70.1777718 C6.31227684,67.1357718 2.79627684,61.2197718 2.79627684,61.2197718 L9.54027684,58.7957718 Z" id="Path" fill="#FFA8A7"></path>
                <path d="M20.3042768,28.7357718 C14.3882768,28.2257718 12.8642768,31.2677718 8.66427684,38.7197718 C4.95627684,45.2237718 0.156276836,53.3357718 0.000276835858,56.7197718 C-0.0417231641,57.8117718 4.70427684,65.3957718 8.10027684,69.2477718 C11.0402768,69.1097718 13.1702768,67.9757718 14.5622768,66.2477718 C13.7522768,64.8977718 9.38427684,56.9897718 9.38427684,56.9897718 L17.1842768,44.9537718 C18.7116883,43.1015894 19.7989778,40.9270104 20.3642768,38.5937718 C21.3722768,34.1357718 20.9762768,29.7317718 20.3042768,28.7357718 Z" id="Path" fill="#37474F"></path>
                <path d="M27.8282744,9.68577185 C27.8258496,12.6955158 29.6370077,15.4102506 32.4169522,16.563712 C35.1968967,17.7171734 38.3979569,17.0821204 40.5270263,14.954768 C42.6560956,12.8274157 43.2937309,9.62686881 42.1425127,6.84599466 C40.9912945,4.06512051 38.2780217,2.25177185 35.2682768,2.25177185 C31.1616203,2.25177185 27.8315887,5.57911665 27.8282744,9.68577185 L27.8282744,9.68577185 Z" id="Path" fill="#263238"></path>
                <path d="M22.4102768,14.9717718 C22.4102768,14.9717718 23.6102768,20.6357718 24.0962768,21.5717718 C24.4179484,22.1471584 24.9485687,22.5768104 25.5782768,22.7717718 L25.4942768,18.7877718 L22.4102768,14.9717718 Z" id="Path" fill="#263238"></path>
                <path d="M23.8502768,6.04377185 C23.0138697,6.04791126 22.215763,6.39491416 21.6422768,7.00377185 C20.6522768,8.01777185 21.1742768,11.8637718 22.4102768,14.9717718 L24.6782768,15.2357718 L23.8502768,6.04377185 Z" id="Path" fill="#263238"></path>
                <path d="M25.3562768,15.2357718 C24.9002768,15.5117718 24.2522768,14.6357718 23.6882768,14.0357718 C23.1242768,13.4357718 21.2882768,12.6437718 20.3822768,14.5697718 C19.4762768,16.4957718 21.1862768,19.1297718 22.6322768,19.5797718 C25.1162768,20.3597718 25.4882768,18.7637718 25.4882768,18.7637718 L25.6742768,28.0097718 L25.6742768,28.0097718 C27.3902768,30.2117718 31.2542768,32.8097718 33.3362768,32.4317718 C34.9922768,32.1377718 35.3582768,29.3357718 33.7682768,27.4997718 L33.7682768,24.7697718 C34.8768816,24.9471862 36.0014923,25.0035173 37.1222768,24.9377718 C38.9222768,24.6557718 40.1222768,23.2157718 40.6562768,21.2357718 C41.5442768,18.0557718 41.8562768,15.4877718 41.1242768,9.23577185 C40.2962768,2.38377185 32.3282768,2.31177185 28.0262768,5.03577185 C23.7242768,7.75977185 25.3562768,15.2357718 25.3562768,15.2357718 Z" id="Path" fill="#FFA8A7"></path>
                <path d="M41.9282768,6.46377185 C41.5689369,7.09783672 41.0360581,7.61614467 40.3922768,7.95777185 C38.7882415,8.83501641 36.9538122,9.19938934 35.1362768,9.00177185 C33.2462768,8.79177185 31.5362768,7.87977185 29.8442768,7.03377185 C29.7414564,7.73544125 29.4442388,8.39430827 28.9862768,8.93577185 C28.4109315,9.52392039 27.7149588,9.98039658 26.9462768,10.2737718 C26.7902768,11.5037718 26.7962768,13.0877718 26.7182768,14.3297718 C26.7182768,14.7497718 26.7182768,16.9277718 25.7042768,16.3037718 C25.3745359,16.0194301 25.0839984,15.6925754 24.8402768,15.3317718 C24.4822192,14.8887014 24.0996197,14.4660391 23.6942768,14.0657718 C23.4002768,13.7957718 23.4182768,13.1777718 23.4062768,12.8237718 C23.382201,12.0809956 23.4062513,11.3374397 23.4782768,10.5977718 C23.5442768,9.82977185 23.6702768,9.06777185 23.7362768,8.30577185 C23.7160467,7.86617732 23.6121927,7.43447028 23.4302768,7.03377185 C23.2884585,6.5632788 23.2236224,6.07295552 23.2382768,5.58177185 C23.3222768,4.04577185 24.4982768,2.74377185 25.8782768,2.06577185 C27.8808997,1.19898006 30.0773825,0.87809897 32.2442768,1.13577185 C34.1282768,1.29177185 36.0722768,1.50777185 37.8662768,0.919771846 C38.5562768,0.691771846 39.2102768,0.319771846 39.9122768,0.151771846 C40.6095488,-0.0892473437 41.3742122,-0.0417258903 42.0362768,0.283771846 C43.3922768,1.06977185 43.4762768,3.48777185 42.1382768,4.30977185 C42.0482768,4.36377185 41.9402768,4.42377185 41.9102768,4.52577185 C41.8898384,4.64478129 41.9155906,4.76710443 41.9822768,4.86777185 C42.2141643,5.37908038 42.1941942,5.96930634 41.9282768,6.46377185 L41.9282768,6.46377185 Z" id="Path" fill="#263238"></path>
                <path d="M23.4002768,6.84177185 L20.6462768,5.36577185 C20.8251996,4.99127474 21.1491223,4.70595122 21.5432059,4.57572244 C21.9372895,4.44549366 22.3674405,4.48162615 22.7342768,4.67577185 C23.4978919,5.10502678 23.7908016,6.0576429 23.4002768,6.84177185 L23.4002768,6.84177185 Z" id="Path" fill="#263238"></path>
                <path d="M33.7562768,24.7817718 C33.7562768,24.7817718 29.6762768,23.9597718 28.2482768,23.1977718 C27.4093981,22.7607345 26.7215426,22.081242 26.2742768,21.2477718 C26.4911713,22.0828053 26.8726296,22.8661206 27.3962768,23.5517718 C28.4402768,24.8837718 33.7562768,25.8677718 33.7562768,25.8677718 L33.7562768,24.7817718 Z" id="Path" fill="#F28F8F"></path>
                <path d="M33.3542768,13.7897718 C33.3345907,14.2683915 32.9341077,14.6424406 32.4552595,14.6294493 C31.9764114,14.616458 31.5967986,14.2212447 31.6030925,13.7422617 C31.6093864,13.2632787 31.9992527,12.8781765 32.4782768,12.8777718 C32.7159187,12.8808961 32.9423911,12.9791499 33.1070268,13.1505515 C33.2716626,13.3219531 33.3607207,13.5521968 33.3542768,13.7897718 Z" id="Path" fill="#263238"></path>
                <path d="M32.4782768,10.8197718 L30.6782768,11.8217718 C30.4110581,11.3066515 30.5960294,10.6724645 31.0982768,10.3817718 C31.3388552,10.2541435 31.6206599,10.2286528 31.8802353,10.3110398 C32.1398106,10.3934267 32.3553348,10.5767653 32.4782768,10.8197718 Z" id="Path" fill="#263238"></path>
                <path d="M33.4262768,19.7357718 L35.4482768,20.4917718 C35.3597317,20.7663494 35.1632878,20.9930869 34.9041225,21.1198402 C34.6449572,21.2465935 34.3453765,21.2624532 34.0742768,21.1637718 C33.5086247,20.9403046 33.2219812,20.3086272 33.4262768,19.7357718 L33.4262768,19.7357718 Z" id="Path" fill="#F28F8F"></path>
                <path d="M40.5782768,11.5517718 L38.9282768,10.2797718 C39.0847924,10.0546288 39.326736,9.90346368 39.5977097,9.86151378 C39.8686834,9.81956388 40.14501,9.89049466 40.3622768,10.0577718 C40.8223033,10.4178284 40.9174842,11.0761634 40.5782768,11.5517718 L40.5782768,11.5517718 Z" id="Path" fill="#263238"></path>
                <path d="M40.2062768,13.6217718 C40.1865978,14.0838055 39.7995645,14.4444201 39.3372942,14.4314381 C38.8750239,14.4184561 38.508839,14.0366889 38.5151212,13.574279 C38.5214034,13.1118691 38.8978245,12.7401907 39.3602768,12.7397718 C39.5894402,12.7444963 39.8073347,12.8400876 39.9660011,13.0055057 C40.1246674,13.1709238 40.2111008,13.3926106 40.2062768,13.6217718 L40.2062768,13.6217718 Z" id="Path" fill="#263238"></path>
                <polygon id="Path" fill="#F28F8F" points="35.6702768 12.9257718 35.9642768 18.2597718 38.7482768 17.3117718"></polygon>
                <path d="M36.6782768,31.8617718 C36.1562768,33.0617718 35.1962768,33.5957718 33.4622768,33.7937718 C31.7005786,33.9164025 29.9656465,33.3113449 28.6622768,32.1197718 L30.8222768,29.9657718 L33.5642768,32.0357718 L33.7982768,29.7317718 L36.6782768,31.8617718 Z" id="Path" fill="#2051B9"></path>
                <path d="M36.6782768,31.8617718 C36.1562768,33.0617718 35.1962768,33.5957718 33.4622768,33.7937718 C31.7005786,33.9164025 29.9656465,33.3113449 28.6622768,32.1197718 L30.8222768,29.9657718 L33.5642768,32.0357718 L33.7982768,29.7317718 L36.6782768,31.8617718 Z" id="Path" fill="#000000" opacity="0.2"></path>
                <path d="M35.3162768,31.1837718 C35.5669489,31.9285272 35.6629089,32.7166245 35.5982768,33.4997718 C35.5190196,34.1988747 35.253817,34.8639531 34.8302768,35.4257718 C34.2715388,35.7800014 33.580198,35.8553399 32.9582768,35.6297718 C31.8226923,34.6639398 31.1652884,33.2505215 31.1582768,31.7597718 L33.5582768,32.0357718 L35.3162768,31.1837718 Z" id="Path" fill="#2051B9"></path>
                <path d="M34.8302768,35.4257718 C34.8302768,35.4257718 37.6442768,50.9477718 37.7582768,52.2257718 C37.8722768,53.5037718 36.1382768,57.9257718 35.0702768,57.9677718 C34.0022768,58.0097718 31.8902768,53.9777718 31.8602768,52.8377718 C31.8302768,51.6977718 32.9582768,35.6537718 32.9582768,35.6537718 L34.8302768,35.4257718 Z" id="Path" fill="#2051B9"></path>
                <path d="M32.9582768,35.6297718 C33.5739466,35.9008611 34.2874483,35.8231077 34.8302768,35.4257718 L34.8722768,35.6717718 C34.326441,36.1107856 33.6000413,36.254272 32.9282768,36.0557718 L32.9582768,35.6297718 Z" id="Path" fill="#37474F"></path>
                <path d="M33.5582768,32.0357718 L25.6382768,25.9937718 L25.6382768,24.4157718 C25.6382768,24.4157718 23.7842768,24.9077718 23.3702768,28.1537718 C24.6427127,30.9773345 26.8163507,33.2986955 29.5502768,34.7537718 L31.2122768,31.7537718 L33.5582768,32.0357718 Z" id="Path" fill="#37474F"></path>
                <path d="M33.7562768,25.1717718 C34.8082259,25.6676343 35.7213028,26.4158215 36.4142768,27.3497718 C37.2062768,28.6577718 37.2002775,32.9057718 37.2002775,32.9057718 L35.3042768,31.1837718 L33.5462768,32.0357718 C33.7142768,30.3677718 33.7622768,27.5117718 33.7622768,27.5117718 L33.7562768,25.1717718 Z" id="Path" fill="#37474F"></path>
            </g>
        </g>
    </g>
</svg>